<svg width="25" height="25" viewBox="0 0 25 25" fill="none" xmlns="http://www.w3.org/2000/svg">
<path fill-rule="evenodd" clip-rule="evenodd" d="M10 7.75C10 7.33579 10.3134 7 10.7 7H16.3C16.6866 7 17 7.33579 17 7.75C17 8.16421 16.6866 8.5 16.3 8.5H10.7C10.3134 8.5 10 8.16421 10 7.75Z" fill="black"/>
<path fill-rule="evenodd" clip-rule="evenodd" d="M10 10.75C10 10.3358 10.3134 10 10.7 10H16.3C16.6866 10 17 10.3358 17 10.75C17 11.1642 16.6866 11.5 16.3 11.5H10.7C10.3134 11.5 10 11.1642 10 10.75Z" fill="black"/>
<path fill-rule="evenodd" clip-rule="evenodd" d="M4.50008 21.5C4.00008 21 3.99799 20.4853 4.00014 20.008L4.00005 4.00003C4.0022 3.52276 4.00008 2.99997 4.50008 2.5C5.00008 2.00002 5.63399 1.99834 6.00014 1.99999L18.0001 1.99999C18.7324 2.00329 20.0001 1.99999 21.0001 2.99999C22.0001 3.99999 22.0044 5.04545 22.0001 5.99999L22.0001 18C21.9958 18.9545 22.0001 20 21.0001 21C20.0001 22 18.7324 22.0033 18.0001 22L6.00008 22C5.63394 21.9984 5.00008 22 4.50008 21.5ZM6.00014 20.008L18.0001 20C18.3663 20.0017 19.0001 20 19.5001 19.5C20.0002 19.0001 19.998 18.4773 20.0001 18L20.0001 5.99999C20.0001 5.51554 20.0001 4.99999 19.5001 4.49999C19.0001 3.99999 18.3662 4.00167 18.0001 4.00003L6.00014 4.00002L6.00014 20.008Z" fill="black"/>
<path fill-rule="evenodd" clip-rule="evenodd" d="M2.50338 16.75C2.50524 16.3358 2.84254 16.0015 3.25675 16.0034L6.25671 16.0169C6.67092 16.0188 7.0052 16.3561 7.00333 16.7703C7.00147 17.1845 6.66417 17.5187 6.24996 17.5169L3.24999 17.5034C2.83578 17.5015 2.50151 17.1642 2.50338 16.75Z" fill="black"/>
<path fill-rule="evenodd" clip-rule="evenodd" d="M2.50338 12C2.50524 11.5858 2.84254 11.2515 3.25675 11.2534L6.25671 11.2669C6.67092 11.2688 7.0052 11.6061 7.00333 12.0203C7.00147 12.4345 6.66417 12.7687 6.24996 12.7669L3.24999 12.7534C2.83578 12.7515 2.50151 12.4142 2.50338 12Z" fill="black"/>
<path fill-rule="evenodd" clip-rule="evenodd" d="M2.50338 7.25001C2.50524 6.8358 2.84254 6.50153 3.25675 6.50339L6.25671 6.5169C6.67092 6.51876 7.0052 6.85606 7.00333 7.27027C7.00147 7.68448 6.66417 8.01875 6.24996 8.01688L3.24999 8.00338C2.83578 8.00151 2.50151 7.66422 2.50338 7.25001Z" fill="black"/>
</svg>
