<svg width="24" height="24" viewBox="0 0 24 24" fill="none" xmlns="http://www.w3.org/2000/svg">
<path fill-rule="evenodd" clip-rule="evenodd" d="M12 3.75C7.44365 3.75 3.75 7.44365 3.75 12C3.75 16.5563 7.44365 20.25 12 20.25C16.5563 20.25 20.25 16.5563 20.25 12C20.25 7.44365 16.5563 3.75 12 3.75ZM2.25 12C2.25 6.61522 6.61522 2.25 12 2.25C17.3848 2.25 21.75 6.61522 21.75 12C21.75 17.3848 17.3848 21.75 12 21.75C6.61522 21.75 2.25 17.3848 2.25 12Z" fill="black"/>
<path d="M8.625 11.25C9.24632 11.25 9.75 10.7463 9.75 10.125C9.75 9.50368 9.24632 9 8.625 9C8.00368 9 7.5 9.50368 7.5 10.125C7.5 10.7463 8.00368 11.25 8.625 11.25Z" fill="black"/>
<path d="M15.375 11.25C15.9963 11.25 16.5 10.7463 16.5 10.125C16.5 9.50368 15.9963 9 15.375 9C14.7537 9 14.25 9.50368 14.25 10.125C14.25 10.7463 14.7537 11.25 15.375 11.25Z" fill="black"/>
<path fill-rule="evenodd" clip-rule="evenodd" d="M7.72372 13.6014C8.08196 13.3934 8.54093 13.5153 8.74887 13.8735C9.07941 14.443 9.55371 14.9156 10.1243 15.2442C10.6949 15.5727 11.3418 15.7456 12.0002 15.7456C12.6587 15.7456 13.3055 15.5727 13.8761 15.2442C14.4467 14.9156 14.921 14.443 15.2516 13.8735C15.4595 13.5153 15.9185 13.3934 16.2767 13.6014C16.635 13.8093 16.7568 14.2683 16.5489 14.6265C16.0864 15.4232 15.4229 16.0844 14.6246 16.5441C13.8264 17.0037 12.9214 17.2456 12.0002 17.2456C11.0791 17.2456 10.1741 17.0037 9.37581 16.5441C8.57754 16.0844 7.91399 15.4232 7.45157 14.6265C7.24364 14.2683 7.36548 13.8093 7.72372 13.6014Z" fill="black"/>
</svg>
