<svg width="24" height="24" viewBox="0 0 24 24" fill="none" xmlns="http://www.w3.org/2000/svg">
<path fill-rule="evenodd" clip-rule="evenodd" d="M12 7.125C9.30761 7.125 7.125 9.30761 7.125 12C7.125 14.6924 9.30761 16.875 12 16.875C14.6924 16.875 16.875 14.6924 16.875 12C16.875 9.30761 14.6924 7.125 12 7.125ZM5.625 12C5.625 8.47918 8.47918 5.625 12 5.625C15.5208 5.625 18.375 8.47918 18.375 12C18.375 15.5208 15.5208 18.375 12 18.375C8.47918 18.375 5.625 15.5208 5.625 12Z" fill="black"/>
<path fill-rule="evenodd" clip-rule="evenodd" d="M12 1.875C12.4142 1.875 12.75 2.21079 12.75 2.625V3.375C12.75 3.78921 12.4142 4.125 12 4.125C11.5858 4.125 11.25 3.78921 11.25 3.375V2.625C11.25 2.21079 11.5858 1.875 12 1.875Z" fill="black"/>
<path fill-rule="evenodd" clip-rule="evenodd" d="M4.84174 4.84156C5.13463 4.54866 5.60951 4.54866 5.9024 4.84156L6.4274 5.36656C6.72029 5.65945 6.72029 6.13432 6.4274 6.42722C6.13451 6.72011 5.65963 6.72011 5.36674 6.42722L4.84174 5.90222C4.54885 5.60932 4.54885 5.13445 4.84174 4.84156Z" fill="black"/>
<path fill-rule="evenodd" clip-rule="evenodd" d="M1.875 12C1.875 11.5858 2.21079 11.25 2.625 11.25H3.375C3.78921 11.25 4.125 11.5858 4.125 12C4.125 12.4142 3.78921 12.75 3.375 12.75H2.625C2.21079 12.75 1.875 12.4142 1.875 12Z" fill="black"/>
<path fill-rule="evenodd" clip-rule="evenodd" d="M6.4274 17.5728C6.72029 17.8657 6.72029 18.3406 6.4274 18.6335L5.9024 19.1585C5.60951 19.4514 5.13463 19.4514 4.84174 19.1585C4.54885 18.8656 4.54885 18.3907 4.84174 18.0978L5.36674 17.5728C5.65963 17.2799 6.13451 17.2799 6.4274 17.5728Z" fill="black"/>
<path fill-rule="evenodd" clip-rule="evenodd" d="M12 19.875C12.4142 19.875 12.75 20.2108 12.75 20.625V21.375C12.75 21.7892 12.4142 22.125 12 22.125C11.5858 22.125 11.25 21.7892 11.25 21.375V20.625C11.25 20.2108 11.5858 19.875 12 19.875Z" fill="black"/>
<path fill-rule="evenodd" clip-rule="evenodd" d="M17.5727 17.5728C17.8656 17.2799 18.3405 17.2799 18.6334 17.5728L19.1584 18.0978C19.4512 18.3907 19.4512 18.8656 19.1584 19.1585C18.8655 19.4514 18.3906 19.4514 18.0977 19.1585L17.5727 18.6335C17.2798 18.3406 17.2798 17.8657 17.5727 17.5728Z" fill="black"/>
<path fill-rule="evenodd" clip-rule="evenodd" d="M19.875 12C19.875 11.5858 20.2108 11.25 20.625 11.25H21.375C21.7892 11.25 22.125 11.5858 22.125 12C22.125 12.4142 21.7892 12.75 21.375 12.75H20.625C20.2108 12.75 19.875 12.4142 19.875 12Z" fill="black"/>
<path fill-rule="evenodd" clip-rule="evenodd" d="M19.1584 4.84156C19.4512 5.13445 19.4512 5.60932 19.1584 5.90222L18.6334 6.42722C18.3405 6.72011 17.8656 6.72011 17.5727 6.42722C17.2798 6.13433 17.2798 5.65945 17.5727 5.36656L18.0977 4.84156C18.3906 4.54866 18.8655 4.54866 19.1584 4.84156Z" fill="black"/>
</svg>
