<svg width="24" height="24" viewBox="0 0 24 24" fill="none" xmlns="http://www.w3.org/2000/svg">
<path fill-rule="evenodd" clip-rule="evenodd" d="M3.75 4.5C4.16421 4.5 4.5 4.83579 4.5 5.25V16.5C4.5 16.9142 4.16421 17.25 3.75 17.25C3.33579 17.25 3 16.9142 3 16.5V5.25C3 4.83579 3.33579 4.5 3.75 4.5Z" fill="black"/>
<path fill-rule="evenodd" clip-rule="evenodd" d="M3 10.875C3 10.4608 3.33579 10.125 3.75 10.125H13.5C13.9142 10.125 14.25 10.4608 14.25 10.875C14.25 11.2892 13.9142 11.625 13.5 11.625H3.75C3.33579 11.625 3 11.2892 3 10.875Z" fill="black"/>
<path fill-rule="evenodd" clip-rule="evenodd" d="M13.5 4.5C13.9142 4.5 14.25 4.83579 14.25 5.25V16.5C14.25 16.9142 13.9142 17.25 13.5 17.25C13.0858 17.25 12.75 16.9142 12.75 16.5V5.25C12.75 4.83579 13.0858 4.5 13.5 4.5Z" fill="black"/>
<path fill-rule="evenodd" clip-rule="evenodd" d="M21.3842 8.73082C21.7399 8.94296 21.8564 9.40334 21.6442 9.75911L18.6255 14.8216C18.4133 15.1774 17.953 15.2938 17.5972 15.0817C17.2414 14.8695 17.125 14.4091 17.3371 14.0534L20.3559 8.99088C20.568 8.63511 21.0284 8.51868 21.3842 8.73082Z" fill="black"/>
<path fill-rule="evenodd" clip-rule="evenodd" d="M20.25 13.875C19.2145 13.875 18.375 14.7145 18.375 15.75C18.375 16.7855 19.2145 17.625 20.25 17.625C21.2855 17.625 22.125 16.7855 22.125 15.75C22.125 14.7145 21.2855 13.875 20.25 13.875ZM16.875 15.75C16.875 13.886 18.386 12.375 20.25 12.375C22.114 12.375 23.625 13.886 23.625 15.75C23.625 17.614 22.114 19.125 20.25 19.125C18.386 19.125 16.875 17.614 16.875 15.75Z" fill="black"/>
</svg>
