<svg width="24" height="24" viewBox="0 0 24 24" fill="none" xmlns="http://www.w3.org/2000/svg">
<path fill-rule="evenodd" clip-rule="evenodd" d="M3.75 4.5C4.16421 4.5 4.5 4.83579 4.5 5.25V16.5C4.5 16.9142 4.16421 17.25 3.75 17.25C3.33579 17.25 3 16.9142 3 16.5V5.25C3 4.83579 3.33579 4.5 3.75 4.5Z" fill="black"/>
<path fill-rule="evenodd" clip-rule="evenodd" d="M3 10.875C3 10.4608 3.33579 10.125 3.75 10.125H13.5C13.9142 10.125 14.25 10.4608 14.25 10.875C14.25 11.2892 13.9142 11.625 13.5 11.625H3.75C3.33579 11.625 3 11.2892 3 10.875Z" fill="black"/>
<path fill-rule="evenodd" clip-rule="evenodd" d="M13.5 4.5C13.9142 4.5 14.25 4.83579 14.25 5.25V16.5C14.25 16.9142 13.9142 17.25 13.5 17.25C13.0858 17.25 12.75 16.9142 12.75 16.5V5.25C12.75 4.83579 13.0858 4.5 13.5 4.5Z" fill="black"/>
<path fill-rule="evenodd" clip-rule="evenodd" d="M20.5466 10.5351C20.2078 10.4668 19.8557 10.5175 19.5499 10.6789C19.2442 10.8402 19.0036 11.1022 18.8688 11.4206C18.7072 11.802 18.2671 11.9803 17.8857 11.8187C17.5042 11.6572 17.326 11.2171 17.4875 10.8356C17.7571 10.199 18.2384 9.67497 18.8499 9.35228C19.4613 9.02959 20.1655 8.92801 20.8433 9.06474C21.521 9.20147 22.1307 9.5681 22.5693 10.1026C23.0078 10.6371 23.2483 11.3067 23.25 11.9981C23.2524 12.5975 23.0729 13.1835 22.7353 13.6787C22.729 13.6879 22.7226 13.697 22.7159 13.7059L19.499 18H22.5C22.9142 18 23.25 18.3358 23.25 18.75C23.25 19.1642 22.9142 19.5 22.5 19.5H18C17.716 19.5 17.4564 19.3396 17.3293 19.0856C17.2022 18.8316 17.2295 18.5276 17.3998 18.3003L21.5043 12.8213C21.5015 12.8255 21.4988 12.8296 21.4959 12.8338L21.5154 12.8066L21.5043 12.8213C21.6657 12.5793 21.7513 12.2945 21.75 12.0034L21.75 12.0018C21.7492 11.6561 21.6289 11.3213 21.4097 11.0541C21.1904 10.7868 20.8855 10.6035 20.5466 10.5351Z" fill="black"/>
</svg>
