<svg width="24" height="24" viewBox="0 0 24 24" fill="none" xmlns="http://www.w3.org/2000/svg">
<path fill-rule="evenodd" clip-rule="evenodd" d="M3.75 4.5C4.16421 4.5 4.5 4.83579 4.5 5.25V16.5C4.5 16.9142 4.16421 17.25 3.75 17.25C3.33579 17.25 3 16.9142 3 16.5V5.25C3 4.83579 3.33579 4.5 3.75 4.5Z" fill="black"/>
<path fill-rule="evenodd" clip-rule="evenodd" d="M3 10.875C3 10.4608 3.33579 10.125 3.75 10.125H13.5C13.9142 10.125 14.25 10.4608 14.25 10.875C14.25 11.2892 13.9142 11.625 13.5 11.625H3.75C3.33579 11.625 3 11.2892 3 10.875Z" fill="black"/>
<path fill-rule="evenodd" clip-rule="evenodd" d="M13.5 4.5C13.9142 4.5 14.25 4.83579 14.25 5.25V16.5C14.25 16.9142 13.9142 17.25 13.5 17.25C13.0858 17.25 12.75 16.9142 12.75 16.5V5.25C12.75 4.83579 13.0858 4.5 13.5 4.5Z" fill="black"/>
<path fill-rule="evenodd" clip-rule="evenodd" d="M17.9909 10.0052C18.0497 9.64195 18.3633 9.375 18.7313 9.375H22.5C22.9143 9.375 23.25 9.71079 23.25 10.125C23.25 10.5392 22.9143 10.875 22.5 10.875H19.3697L18.9872 13.2388C19.0567 13.2203 19.1269 13.2039 19.1978 13.1898C19.8525 13.0596 20.5311 13.1265 21.1477 13.3819C21.7644 13.6374 22.2915 14.07 22.6623 14.625C23.0332 15.18 23.2311 15.8325 23.2311 16.5C23.2311 17.1675 23.0332 17.82 22.6623 18.375C22.2915 18.93 21.7644 19.3626 21.1477 19.6181C20.5311 19.8735 19.8525 19.9404 19.1978 19.8102C18.5431 19.68 17.9418 19.3586 17.4697 18.8866C17.1768 18.5937 17.1768 18.1189 17.4697 17.8259C17.7626 17.533 18.2374 17.533 18.5303 17.8259C18.7926 18.0881 19.1267 18.2667 19.4904 18.339C19.8541 18.4113 20.2311 18.3742 20.5737 18.2323C20.9163 18.0903 21.2091 17.85 21.4151 17.5417C21.6211 17.2333 21.7311 16.8708 21.7311 16.5C21.7311 16.1292 21.6211 15.7667 21.4151 15.4583C21.2091 15.15 20.9163 14.9097 20.5737 14.7677C20.2311 14.6258 19.8541 14.5887 19.4904 14.661C19.1267 14.7333 18.7926 14.9119 18.5303 15.1741C18.3003 15.4042 17.9481 15.4596 17.6584 15.3114C17.3687 15.1632 17.2077 14.8451 17.2597 14.5239L17.9909 10.0052Z" fill="black"/>
</svg>
