<svg width="24" height="24" viewBox="0 0 24 24" fill="none" xmlns="http://www.w3.org/2000/svg">
<path fill-rule="evenodd" clip-rule="evenodd" d="M3.75 4.5C4.16421 4.5 4.5 4.83579 4.5 5.25V16.5C4.5 16.9142 4.16421 17.25 3.75 17.25C3.33579 17.25 3 16.9142 3 16.5V5.25C3 4.83579 3.33579 4.5 3.75 4.5Z" fill="black"/>
<path fill-rule="evenodd" clip-rule="evenodd" d="M3 10.875C3 10.4608 3.33579 10.125 3.75 10.125H13.5C13.9142 10.125 14.25 10.4608 14.25 10.875C14.25 11.2892 13.9142 11.625 13.5 11.625H3.75C3.33579 11.625 3 11.2892 3 10.875Z" fill="black"/>
<path fill-rule="evenodd" clip-rule="evenodd" d="M13.5 4.5C13.9142 4.5 14.25 4.83579 14.25 5.25V16.5C14.25 16.9142 13.9142 17.25 13.5 17.25C13.0858 17.25 12.75 16.9142 12.75 16.5V5.25C12.75 4.83579 13.0858 4.5 13.5 4.5Z" fill="black"/>
<path fill-rule="evenodd" clip-rule="evenodd" d="M17.25 10.125C17.25 9.71079 17.5858 9.375 18 9.375H22.5C22.7797 9.375 23.0361 9.53059 23.1652 9.77864C23.2944 10.0267 23.2748 10.326 23.1144 10.5551L21.1425 13.3721C21.2526 13.4168 21.3606 13.4673 21.4659 13.5236C21.9554 13.7853 22.3728 14.1636 22.6811 14.6251C22.9894 15.0865 23.1792 15.6169 23.2336 16.1693C23.288 16.7216 23.2053 17.2788 22.9929 17.7916C22.7805 18.3043 22.4449 18.7568 22.0159 19.1089C21.5869 19.461 21.0776 19.7018 20.5333 19.8101C19.989 19.9184 19.4263 19.8908 18.8952 19.7297C18.3641 19.5686 17.8809 19.279 17.4884 18.8866C17.1955 18.5937 17.1955 18.1189 17.4884 17.8259C17.7813 17.533 18.2561 17.533 18.5491 17.8259C18.7671 18.0439 19.0355 18.2048 19.3306 18.2943C19.6257 18.3838 19.9382 18.3991 20.2406 18.339C20.5431 18.2788 20.826 18.145 21.0643 17.9494C21.3027 17.7538 21.4891 17.5024 21.6071 17.2175C21.7251 16.9327 21.771 16.6231 21.7408 16.3163C21.7106 16.0094 21.6052 15.7147 21.4339 15.4584C21.2626 15.202 21.0307 14.9918 20.7588 14.8464C20.4869 14.7011 20.1833 14.625 19.8749 14.625C19.5953 14.625 19.3389 14.4694 19.2098 14.2213C19.0806 13.9733 19.1002 13.674 19.2606 13.4449L21.0595 10.875H18C17.5858 10.875 17.25 10.5392 17.25 10.125Z" fill="black"/>
</svg>
