<svg width="24" height="24" viewBox="0 0 24 24" fill="none" xmlns="http://www.w3.org/2000/svg">
<path fill-rule="evenodd" clip-rule="evenodd" d="M3.75 4.5C4.16421 4.5 4.5 4.83579 4.5 5.25V16.5C4.5 16.9142 4.16421 17.25 3.75 17.25C3.33579 17.25 3 16.9142 3 16.5V5.25C3 4.83579 3.33579 4.5 3.75 4.5Z" fill="black"/>
<path fill-rule="evenodd" clip-rule="evenodd" d="M3 10.875C3 10.4608 3.33579 10.125 3.75 10.125H13.5C13.9142 10.125 14.25 10.4608 14.25 10.875C14.25 11.2892 13.9142 11.625 13.5 11.625H3.75C3.33579 11.625 3 11.2892 3 10.875Z" fill="black"/>
<path fill-rule="evenodd" clip-rule="evenodd" d="M13.5 4.5C13.9142 4.5 14.25 4.83579 14.25 5.25V16.5C14.25 16.9142 13.9142 17.25 13.5 17.25C13.0858 17.25 12.75 16.9142 12.75 16.5V5.25C12.75 4.83579 13.0858 4.5 13.5 4.5Z" fill="black"/>
<path fill-rule="evenodd" clip-rule="evenodd" d="M20.1246 8.66775C20.5152 8.80561 20.7201 9.23401 20.5822 9.62461L18.6851 15H22.125C22.5392 15 22.875 15.3358 22.875 15.75C22.875 16.1642 22.5392 16.5 22.125 16.5H17.625C17.3816 16.5 17.1533 16.3819 17.0128 16.1832C16.8722 15.9845 16.8368 15.7299 16.9178 15.5004L19.1678 9.12538C19.3056 8.73478 19.734 8.52989 20.1246 8.66775Z" fill="black"/>
<path fill-rule="evenodd" clip-rule="evenodd" d="M22.125 12C22.5392 12 22.875 12.3358 22.875 12.75V18.75C22.875 19.1642 22.5392 19.5 22.125 19.5C21.7108 19.5 21.375 19.1642 21.375 18.75V12.75C21.375 12.3358 21.7108 12 22.125 12Z" fill="black"/>
</svg>
