<svg width="24" height="24" viewBox="0 0 24 24" fill="none" xmlns="http://www.w3.org/2000/svg">
<path fill-rule="evenodd" clip-rule="evenodd" d="M14.4871 4.53848C14.8801 4.66946 15.0925 5.0942 14.9615 5.48716L10.4615 18.9872C10.3305 19.3801 9.90575 19.5925 9.51279 19.4615C9.11983 19.3305 8.90746 18.9058 9.03845 18.5128L13.5384 5.01282C13.6694 4.61986 14.0942 4.40749 14.4871 4.53848Z" fill="black"/>
<path fill-rule="evenodd" clip-rule="evenodd" d="M5.25 18.75C5.25 18.3358 5.58579 18 6 18H13.5C13.9142 18 14.25 18.3358 14.25 18.75C14.25 19.1642 13.9142 19.5 13.5 19.5H6C5.58579 19.5 5.25 19.1642 5.25 18.75Z" fill="black"/>
<path fill-rule="evenodd" clip-rule="evenodd" d="M9.75 5.25C9.75 4.83579 10.0858 4.5 10.5 4.5H18C18.4142 4.5 18.75 4.83579 18.75 5.25C18.75 5.66421 18.4142 6 18 6H10.5C10.0858 6 9.75 5.66421 9.75 5.25Z" fill="black"/>
</svg>
