<svg width="24" height="24" viewBox="0 0 24 24" fill="none" xmlns="http://www.w3.org/2000/svg">
<path fill-rule="evenodd" clip-rule="evenodd" d="M3.75 4.5C4.16421 4.5 4.5 4.83579 4.5 5.25V16.5C4.5 16.9142 4.16421 17.25 3.75 17.25C3.33579 17.25 3 16.9142 3 16.5V5.25C3 4.83579 3.33579 4.5 3.75 4.5Z" fill="black"/>
<path fill-rule="evenodd" clip-rule="evenodd" d="M3 10.875C3 10.4608 3.33579 10.125 3.75 10.125H13.5C13.9142 10.125 14.25 10.4608 14.25 10.875C14.25 11.2892 13.9142 11.625 13.5 11.625H3.75C3.33579 11.625 3 11.2892 3 10.875Z" fill="black"/>
<path fill-rule="evenodd" clip-rule="evenodd" d="M13.5 4.5C13.9142 4.5 14.25 4.83579 14.25 5.25V16.5C14.25 16.9142 13.9142 17.25 13.5 17.25C13.0858 17.25 12.75 16.9142 12.75 16.5V5.25C12.75 4.83579 13.0858 4.5 13.5 4.5Z" fill="black"/>
<path fill-rule="evenodd" clip-rule="evenodd" d="M20.979 9.46375C21.2228 9.59426 21.3751 9.8484 21.3751 10.125V18.75C21.3751 19.1642 21.0393 19.5 20.6251 19.5C20.2109 19.5 19.8751 19.1642 19.8751 18.75V11.5264L18.7911 12.249C18.4465 12.4788 17.9808 12.3857 17.751 12.041C17.5213 11.6964 17.6144 11.2307 17.9591 11.001L20.2091 9.50096C20.4392 9.34754 20.7351 9.33323 20.979 9.46375Z" fill="black"/>
</svg>
